<svg width="100" height="100" viewBox="0 0 100 100" fill="none" xmlns="http://www.w3.org/2000/svg">
<path fill-rule="evenodd" clip-rule="evenodd" d="M86 42.8377C86 41.0413 85.1951 39.3394 83.8064 38.1997L53.3117 13.1725C51.0725 11.3348 47.8402 11.3592 45.6291 13.2306L16.1238 38.2025C14.7768 39.3425 14 41.0177 14 42.7824V83C14 86.3137 16.6863 89 20 89H34C37.3137 89 40 86.3137 40 83V68C40 64.6863 42.6863 62 46 62H54C57.3137 62 60 64.6863 60 68V83C60 86.3137 62.6863 89 66 89H80C83.3137 89 86 86.3137 86 83V42.8377Z" fill="white"/>
</svg>
