<svg width="100" height="100" viewBox="0 0 100 100" fill="none" xmlns="http://www.w3.org/2000/svg">
<rect x="75" y="23" width="14" height="14" rx="7" fill="url(#paint0_linear_16_2)"/>
<path d="M72.5285 48.4869C72.793 43.7254 76.7312 40 81.5 40C86.2688 40 90.207 43.7254 90.4715 48.4869L92 76H71L72.5285 48.4869Z" fill="url(#paint1_linear_16_2)"/>
<path fill-rule="evenodd" clip-rule="evenodd" d="M49 37C44.517 37 40.8199 40.5123 40.5903 44.9895L39 76H55H59H75L73.4097 44.9895C73.1801 40.5123 69.483 37 65 37C61.2849 37 58.1095 39.4121 57 42.7865C55.8905 39.4121 52.7151 37 49 37Z" fill="url(#paint2_linear_16_2)"/>
<path d="M11.732 36.4403C12.4508 28.8215 18.8474 23 26.5 23V23C34.1526 23 40.5492 28.8215 41.268 36.4403L45 76H8L11.732 36.4403Z" fill="url(#paint3_linear_16_2)"/>
<path fill-rule="evenodd" clip-rule="evenodd" d="M26.4914 23C18.8388 23 12.4422 28.8215 11.7235 36.4403L10.0766 53.8974C12.3706 46.8881 18.9451 42 26.5022 42C34.0263 42 40.5766 46.8455 42.8977 53.8061L41.2594 36.4403C40.5406 28.8215 34.144 23 26.4914 23Z" fill="url(#paint4_linear_16_2)"/>
<path fill-rule="evenodd" clip-rule="evenodd" d="M26.5 23C18.8474 23 12.4508 28.8215 11.732 36.4403L10.6463 47.9487C12.1609 40.4825 18.7468 35 26.5 35C34.2532 35 40.8391 40.4825 42.3536 47.9487L41.2679 36.4403C40.5492 28.8215 34.1526 23 26.5 23Z" fill="url(#paint5_linear_16_2)"/>
<defs>
<linearGradient id="paint0_linear_16_2" x1="75" y1="21" x2="91.5" y2="40.5" gradientUnits="userSpaceOnUse">
<stop stop-color="#40E9FF"/>
<stop offset="1" stop-color="#26C5DA"/>
</linearGradient>
<linearGradient id="paint1_linear_16_2" x1="71" y1="58" x2="92" y2="58" gradientUnits="userSpaceOnUse">
<stop stop-color="#40E9FF"/>
<stop offset="1" stop-color="#26C5DA"/>
</linearGradient>
<linearGradient id="paint2_linear_16_2" x1="39" y1="56.5" x2="75" y2="56.5" gradientUnits="userSpaceOnUse">
<stop stop-color="#FF8080"/>
<stop offset="1" stop-color="#EE3737"/>
</linearGradient>
<linearGradient id="paint3_linear_16_2" x1="13" y1="49.5" x2="40" y2="49.5" gradientUnits="userSpaceOnUse">
<stop stop-color="#3FED70"/>
<stop offset="1" stop-color="#2AD22A"/>
</linearGradient>
<linearGradient id="paint4_linear_16_2" x1="12.9872" y1="49.5168" x2="39.9657" y2="49.5168" gradientUnits="userSpaceOnUse">
<stop stop-color="#54F481"/>
<stop offset="1" stop-color="#1DE31D"/>
</linearGradient>
<linearGradient id="paint5_linear_16_2" x1="10.6463" y1="35.4744" x2="42.3536" y2="35.4744" gradientUnits="userSpaceOnUse">
<stop stop-color="#5EFA8A"/>
<stop offset="1" stop-color="#42FF77"/>
</linearGradient>
</defs>
</svg>
